<?xml version="1.0" encoding="UTF-8"?>
<!DOCTYPE svg PUBLIC "-//W3C//DTD SVG 1.1//EN" "http://www.w3.org/Graphics/SVG/1.1/DTD/svg11.dtd">
<!-- Creator: CorelDRAW 2021 (64-Bit) -->
<svg xmlns="http://www.w3.org/2000/svg" xml:space="preserve" width="24.1174mm" height="39.5378mm" version="1.1" style="shape-rendering:geometricPrecision; text-rendering:geometricPrecision; image-rendering:optimizeQuality; fill-rule:evenodd; clip-rule:evenodd"
viewBox="0 0 169.18 277.36"
 xmlns:xlink="http://www.w3.org/1999/xlink"
 xmlns:xodm="http://www.corel.com/coreldraw/odm/2003">
 <defs>
  <style type="text/css">
   <![CDATA[
    .str1 {stroke:#A9ABAE;stroke-width:5.44;stroke-linecap:round;stroke-linejoin:round;stroke-miterlimit:10}
    .str0 {stroke:#D52B1E;stroke-width:5.44;stroke-linecap:round;stroke-linejoin:round;stroke-miterlimit:10}
    .fil0 {fill:none;fill-rule:nonzero}
    .fil1 {fill:#F0EBF2;fill-rule:nonzero}
   ]]>
  </style>
 </defs>
 <g id="Capa_x0020_1">
  <metadata id="CorelCorpID_0Corel-Layer"/>
  <g id="_2337914111904">
   <path class="fil0 str0" d="M166.46 191.7l0 -158.28c0,-16.89 -13.82,-30.7 -30.7,-30.7l-102.35 0c-16.89,0 -30.7,13.81 -30.7,30.7l0 210.51c0,16.89 13.81,30.71 30.7,30.71l102.35 0c16.88,0 30.7,-13.82 30.7,-30.71l0 -57.52"/>
   <path class="fil1" d="M157.01 211.09l0 25.66c0,3.88 -3.17,7.05 -7.05,7.05l-103.7 0c-3.88,0 -7.04,-3.17 -7.04,-7.05l0 -184.02c0,-3.88 3.16,-7.05 7.04,-7.05l103.7 0c3.88,0 7.05,3.17 7.05,7.05l0 33.67 0 124.69z"/>
   <path class="fil0 str1" d="M143.49 203.03l0 19.56c0,3.92 -3.2,7.13 -7.11,7.13l-103.57 0c-3.91,0 -7.11,-3.21 -7.11,-7.13l0 -183.89c0,-3.92 3.2,-7.12 7.11,-7.12l103.57 0c3.92,0 7.11,3.2 7.11,7.12l0 46.14m0 94.16l0 11.91"/>
   <path class="fil0 str0" d="M94.94 253.26c0,-5.71 -4.64,-10.33 -10.34,-10.33 -5.7,0 -10.34,4.62 -10.34,10.33 0,5.71 4.63,10.33 10.34,10.33 5.7,0 10.34,-4.62 10.34,-10.33z"/>
  </g>
 </g>
</svg>
