<?xml version="1.0" encoding="UTF-8"?>
<!DOCTYPE svg PUBLIC "-//W3C//DTD SVG 1.1//EN" "http://www.w3.org/Graphics/SVG/1.1/DTD/svg11.dtd">
<!-- Creator: CorelDRAW 2021 (64-Bit) -->
<svg xmlns="http://www.w3.org/2000/svg" xml:space="preserve" width="42.6241mm" height="37.0834mm" version="1.1" style="shape-rendering:geometricPrecision; text-rendering:geometricPrecision; image-rendering:optimizeQuality; fill-rule:evenodd; clip-rule:evenodd"
viewBox="0 0 405.45 352.74"
 xmlns:xlink="http://www.w3.org/1999/xlink"
 xmlns:xodm="http://www.corel.com/coreldraw/odm/2003">
 <defs>
  <style type="text/css">
   <![CDATA[
    .str1 {stroke:#A9ABAE;stroke-width:8.46;stroke-linecap:round;stroke-linejoin:round;stroke-miterlimit:10}
    .str0 {stroke:#D52B1E;stroke-width:8.47;stroke-linecap:round;stroke-linejoin:round;stroke-miterlimit:10}
    .fil1 {fill:none;fill-rule:nonzero}
    .fil0 {fill:#F0EBF2;fill-rule:nonzero}
   ]]>
  </style>
 </defs>
 <g id="Capa_x0020_1">
  <metadata id="CorelCorpID_0Corel-Layer"/>
  <g id="_2340167065776">
   <path class="fil0" d="M378.05 229.38c0,2.64 -2.16,4.81 -4.8,4.81l-308.27 0c-2.64,0 -4.8,-2.17 -4.8,-4.81l0 -14.66 0 -9.61 0 -54.13 0 -9.61 0 -81.24c0,-2.64 2.16,-4.82 4.8,-4.82l308.27 0c2.64,0 4.8,2.17 4.8,4.82l0 169.25z"/>
   <path class="fil1 str0" d="M86.08 348.51l233.29 0m55.58 -344.27l-344.46 0c-14.43,0 -26.25,11.83 -26.25,26.27l0 229.04c0,14.44 11.82,26.27 26.25,26.27l344.46 0c14.43,0 26.27,-11.83 26.27,-26.27l0 -229.04c0,-14.44 -11.84,-26.27 -26.27,-26.27z"/>
   <path class="fil1 str1" d="M361.67 191.4l0 15.98c0,5.7 -4.68,10.38 -10.37,10.38l-297.16 0c-5.68,0 -10.36,-4.68 -10.36,-10.38l0 -158.11c0,-5.71 4.68,-10.38 10.36,-10.38l297.16 0c5.7,0 10.37,4.67 10.37,10.38l0 38.59m0 11.88l0 11.29"/>
   <path class="fil1 str0" d="M129.07 348.51l16.89 -62.7m130.41 62.7l-16.85 -62.7"/>
  </g>
 </g>
</svg>
