<?xml version="1.0" encoding="UTF-8"?>
<!DOCTYPE svg PUBLIC "-//W3C//DTD SVG 1.1//EN" "http://www.w3.org/Graphics/SVG/1.1/DTD/svg11.dtd">
<!-- Creator: CorelDRAW 2021 (64-Bit) -->
<svg xmlns="http://www.w3.org/2000/svg" xml:space="preserve" width="42.4725mm" height="36.0015mm" version="1.1" style="shape-rendering:geometricPrecision; text-rendering:geometricPrecision; image-rendering:optimizeQuality; fill-rule:evenodd; clip-rule:evenodd"
viewBox="0 0 1085.44 920.07"
 xmlns:xlink="http://www.w3.org/1999/xlink"
 xmlns:xodm="http://www.corel.com/coreldraw/odm/2003">
 <defs>
  <style type="text/css">
   <![CDATA[
    .str1 {stroke:#A9ABAE;stroke-width:19.82;stroke-linecap:round;stroke-linejoin:round;stroke-miterlimit:10}
    .str0 {stroke:#D52B1E;stroke-width:19.82;stroke-linecap:round;stroke-linejoin:round;stroke-miterlimit:10}
    .fil1 {fill:none;fill-rule:nonzero}
    .fil0 {fill:#F0EBF2;fill-rule:nonzero}
   ]]>
  </style>
 </defs>
 <g id="Capa_x0020_1">
  <metadata id="CorelCorpID_0Corel-Layer"/>
  <path class="fil0" d="M1085.44 440.57c0,0 -392.46,147.99 -527.53,147.99 -135.08,0 -505.2,-154.88 -505.2,-154.88l0 -128.45c0,-62.59 83.7,-56.82 83.7,-56.82l873.73 0c0,0 75.3,0.19 75.3,64.17l0 127.99z"/>
  <path class="fil1 str0" d="M329.74 205.7c0,-105.57 85.51,-195.79 191.12,-195.79 105.61,0 191.37,90.22 191.37,195.79m-324.37 -10.82c0,-73.51 59.59,-133.14 133.11,-133.14 73.51,0 133.1,59.64 133.1,133.14"/>
  <path class="fil1 str1" d="M771.47 910.16l45.87 0m214.41 -237.78l0 -262.93 0 -135.98c0,-37.2 -30.23,-67.76 -67.4,-67.76l-886.68 0c-37.2,0 -67.76,30.56 -67.76,67.76l0 135.98 0 17.46 0 415.49c0,37.2 30.56,67.76 67.76,67.76l616.44 0"/>
  <path class="fil1 str1" d="M9.93 409.46c0,0 380.22,113.47 510.99,113.47 130.77,0 510.81,-113.47 510.81,-113.47"/>
  <polygon class="fil1 str0" points="189.99,176.36 260.83,176.36 260.83,659.74 189.99,659.74 "/>
  <polygon class="fil1 str0" points="780.64,176.36 851.44,176.36 851.44,659.74 780.64,659.74 "/>
  <path class="fil1 str0" d="M520.98 609.38l0 0c-21.6,0 -39.26,-17.65 -39.26,-39.29l0 -94.35c0,-21.61 17.66,-39.29 39.26,-39.29 21.6,0 39.29,17.68 39.29,39.29l0 94.35c0,21.64 -17.69,39.29 -39.29,39.29z"/>
  <path class="fil1 str0" d="M520.98 609.38l0 0c-21.6,0 -39.26,-17.65 -39.26,-39.29l0 -94.35c0,-21.61 17.66,-39.29 39.26,-39.29 21.6,0 39.29,17.68 39.29,39.29l0 94.35c0,21.64 -17.69,39.29 -39.29,39.29z"/>
 </g>
</svg>
